:SAMPLES-PER-SECOND 30
:FULLY-SPECIFIED
:DEGREES
759
root  -49.9038 40.6072 -2.23386 -172.029 -30.8999 176.46
RightUpLeg  -9.52028 -9.49196 -5.98726
RightLeg  10.8946 2.20516 0.667446
RightFoot  -4.74466 -0.00948899 -0.395174
RightToes  -4.65661e-009 0 -3.6325e-017
Spine  15.9855 3.97608 21.1905
Spine1  1.89653 9.71448 -15.42
HEad  -17.9754 -7.69549 -11.9041
LeftShoulder1  0.152973 3.09914 -31.6978
LeftArm  8.82286 8.7352 -41.369
LeftForeArm  26.8028 -29.8954 -5.0202
LeftHand  -0.0202045 4.58805 -0.945854
RightShoulder  0.0638601 -3.26907 24.6044
RightArm  -24.0438 35.993 34.522
RightForeArm  7.6834 38.9664 8.58124
RightHand  -0.792503 10.5201 -6.16953
LeftUpLeg  -14.0704 1.83204 -0.149125
LeftLeg  3.74816 -16.444 -0.223779
LeftFoot  7.10661 -0.171908 0.79308
LeftToes  9.86798e-010 -1.28139e-010 1.4132e-011
760
root  -49.6349 40.5675 -2.15014 -171.586 -33.7606 176.009
RightUpLeg  -9.47155 -10.535 -6.32453
RightLeg  11.0795 0.553038 1.12443
RightFoot  -5.18226 0.00152029 -0.680998
RightToes  -4.65661e-009 0 -3.6325e-017
Spine  15.6093 3.74696 22.0218
Spine1  2.21157 9.53226 -15.573
HEad  -17.1134 -4.68338 -13.8644
LeftShoulder1  0.189578 3.00233 -31.7371
LeftArm  9.00544 8.2075 -41.4778
LeftForeArm  25.9964 -31.0936 -5.34707
LeftHand  -0.02998 4.71398 0.967629
RightShoulder  -0.0513703 -3.64213 24.9167
RightArm  -24.436 35.4417 32.5049
RightForeArm  11.0807 39.6592 8.59445
RightHand  -0.903323 10.7253 -6.89195
LeftUpLeg  -15.1656 0.786473 -0.439802
LeftLeg  4.15056 -18.5316 -0.187705
LeftFoot  7.74859 -0.0518075 0.036348
LeftToes  9.86798e-010 -1.28139e-010 1.4132e-011
761
root  -49.4027 40.5158 -2.0892 -171.077 -36.9502 175.637
RightUpLeg  -9.45248 -11.4609 -6.62824
RightLeg  11.3979 -1.73728 1.59647
RightFoot  -5.66641 -0.000535441 -0.763363
RightToes  -4.65661e-009 0 -3.6325e-017
Spine  15.0474 3.54359 22.9462
Spine1  2.5015 9.28987 -15.5736
HEad  -16.2168 -1.74638 -15.5466
LeftShoulder1  0.113471 3.20614 -31.969
LeftArm  7.06141 8.27041 -41.7848
LeftForeArm  27.3121 -32.8705 -5.70641
LeftHand  -0.0292186 4.51709 0.700234
RightShoulder  -0.0564325 -3.66079 24.4053
RightArm  -25.3411 33.6276 30.7613
RightForeArm  13.2951 42.0322 9.22102
RightHand  -1.03352 10.5964 -7.8835
LeftUpLeg  -16.539 -0.455333 -0.528278
LeftLeg  5.01576 -19.8883 -0.453685
LeftFoot  7.62877 0.231229 -1.66966
LeftToes  9.86798e-010 -1.28139e-010 1.4132e-011
762
root  -49.2348 40.4496 -2.07058 -170.779 -40.1106 175.378
RightUpLeg  -9.22301 -12.31 -6.906
RightLeg  11.8811 -3.94014 2.03084
RightFoot  -6.26911 -0.0117421 -0.693871
RightToes  -4.65661e-009 0 -3.6325e-017
Spine  14.5713 3.35658 23.831
Spine1  2.45116 9.05225 -15.8477
HEad  -15.712 1.52027 -16.6671
LeftShoulder1  0.0932308 3.25457 -31.3284
LeftArm  4.65298 9.7162 -42.5696
LeftForeArm  29.3536 -35.3401 -6.21728
LeftHand  -0.0304178 4.63554 0.882125
RightShoulder  -0.108613 -3.83101 24.447
RightArm  -26.0963 31.1812 29.3217
RightForeArm  16.5091 44.49 9.86853
RightHand  -1.05107 9.49149 -8.56319
LeftUpLeg  -17.5554 -1.14749 -0.362881
LeftLeg  5.76669 -17.9663 -0.820849
LeftFoot  5.50649 0.86133 -6.1714
LeftToes  9.86798e-010 -1.28139e-010 1.4132e-011
763
root  -49.094 40.4234 -2.08321 -170.818 -43.1335 174.981
RightUpLeg  -8.49883 -12.8739 -7.16853
RightLeg  12.2985 -6.2756 1.99436
RightFoot  -6.70172 -0.0232545 -0.548291
RightToes  -4.65661e-009 0 -3.6325e-017
Spine  14.1635 3.42759 23.775
Spine1  2.92316 8.92687 -15.1082
HEad  -14.9586 3.50954 -17.2028
LeftShoulder1  0.0558873 3.35644 -31.7908
LeftArm  4.29216 10.734 -42.3493
LeftForeArm  29.7014 -37.4133 -6.75065
LeftHand  -0.0334878 4.58998 1.43739
RightShoulder  -0.181066 -4.07175 24.1412
RightArm  -25.879 27.7357 28.5682
RightForeArm  25.3659 48.1635 10.6622
RightHand  -0.82361 6.5531 -8.32079
LeftUpLeg  -18.1405 0.00985234 -0.348556
LeftLeg  6.93471 -13.798 -1.47067
LeftFoot  2.56727 1.35938 -11.1299
LeftToes  9.86798e-010 -1.28139e-010 1.4132e-011
764
root  -48.9543 40.4376 -2.11918 -170.694 -46.2921 174.386
RightUpLeg  -7.58736 -13.1838 -7.3938
RightLeg  12.3651 -8.9863 1.69011
RightFoot  -6.91739 -0.0341364 -0.33065
RightToes  -4.65661e-009 0 -3.6325e-017
Spine  14.0208 3.50815 23.0532
Spine1  2.8552 8.75892 -14.3959
HEad  -14.3254 4.65078 -16.6911
LeftShoulder1  0.0407182 3.39692 -31.9277
LeftArm  5.52018 11.1575 -41.8363
LeftForeArm  28.9129 -38.0261 -6.971
LeftHand  -0.033472 4.44173 1.04686
RightShoulder  -0.260409 -4.31958 24.6016
RightArm  -24.5155 22.7528 28.1375
RightForeArm  34.1732 52.6979 11.9861
RightHand  -0.582783 3.92413 -7.52059
LeftUpLeg  -19.223 1.41899 -0.483464
LeftLeg  9.71982 -10.5396 -1.98106
LeftFoot  1.03746 1.02677 -9.49231
LeftToes  9.86798e-010 -1.28139e-010 1.4132e-011
765
root  -48.9331 40.4483 -2.20124 -170.357 -49.7774 173.366
RightUpLeg  -6.29621 -13.8044 -8.03048
RightLeg  12.5791 -11.6961 1.43626
RightFoot  -7.28818 -0.0474081 -0.0538818
RightToes  -4.65661e-009 0 -3.6325e-017
Spine  13.5158 3.41422 22.1669
Spine1  3.07756 8.40301 -13.7955
HEad  -14.2818 5.02119 -15.9014
LeftShoulder1  0.00499066 3.4902 -31.9096
LeftArm  6.52466 11.5468 -41.6787
LeftForeArm  28.2853 -37.4835 -6.85864
LeftHand  -0.0447783 4.15437 2.26602
RightShoulder  -0.351529 -4.57508 25.7415
RightArm  -21.9004 17.1479 27.6494
RightForeArm  37.3173 56.0746 13.4928
RightHand  -0.546543 4.27886 -6.81037
LeftUpLeg  -20.0065 0.955967 -0.447326
LeftLeg  12.6833 -7.18025 -1.5725
LeftFoot  -0.212695 0.718266 -7.36891
LeftToes  9.86798e-010 -1.28139e-010 1.4132e-011
766
root  -48.9846 40.4479 -2.27837 -169.945 -52.6421 172.221
RightUpLeg  -5.04917 -14.3826 -8.75903
RightLeg  12.913 -13.8532 1.13309
RightFoot  -7.65006 -0.0649036 0.401719
RightToes  -4.65661e-009 0 -3.6325e-017
Spine  13.2177 3.51682 20.758
Spine1  3.22012 8.11648 -12.6415
HEad  -14.1232 4.88394 -15.52
LeftShoulder1  -0.11522 3.80279 -32.4311
LeftArm  6.43482 11.7211 -41.5111
LeftForeArm  28.6007 -35.8699 -6.40059
LeftHand  -0.0319319 4.77934 1.48856
RightShoulder  -0.435157 -4.79354 26.843
RightArm  -18.6963 11.4494 28.202
RightForeArm  37.6176 57.5442 14.3532
RightHand  -0.72911 4.98633 -8.45151
LeftUpLeg  -20.4834 0.529071 -0.00379113
LeftLeg  14.7543 -5.16481 -1.24394
LeftFoot  -0.707812 0.555516 -5.92644
LeftToes  9.86798e-010 -1.28139e-010 1.4132e-011
767
root  -49.1322 40.4372 -2.38427 -170.09 -55.381 172.241
RightUpLeg  -3.69945 -14.2528 -8.58919
RightLeg  12.4539 -16.52 0.90939
RightFoot  -7.75322 -0.0800962 0.877854
RightToes  -4.65661e-009 0 -3.6325e-017
Spine  12.2463 3.58453 20.5372
Spine1  3.68517 7.99588 -12.2517
HEad  -13.8056 4.87463 -15.2653
LeftShoulder1  -0.160476 3.91575 -32.847
LeftArm  5.21433 12.1956 -41.5355
LeftForeArm  28.538 -33.4786 -5.78845
LeftHand  -0.0306414 4.99879 1.00049
RightShoulder  -0.494994 -4.94375 27.5025
RightArm  -14.6849 5.94027 29.9875
RightForeArm  37.0857 56.9591 14.0497
RightHand  -0.814483 5.15049 -9.2958
LeftUpLeg  -20.9148 1.23591 1.39643
LeftLeg  15.3203 -5.64084 -1.43738
LeftFoot  -1.20288 0.490948 -5.45361
LeftToes  9.86798e-010 -1.28139e-010 1.4132e-011
768
root  -49.3558 40.4469 -2.46042 -169.956 -57.281 171.703
RightUpLeg  -2.27714 -14.3195 -8.91707
RightLeg  11.9658 -18.2291 0.729959
RightFoot  -7.76171 -0.0923785 1.2668
RightToes  -4.65661e-009 0 -3.6325e-017
Spine  11.4433 3.60048 20.05
Spine1  4.19211 8.01031 -12.65
HEad  -13.6501 5.30247 -14.8689
LeftShoulder1  -0.197851 4.01018 -32.9362
LeftArm  4.85571 12.6605 -41.1288
LeftForeArm  27.2304 -30.4974 -5.13549
LeftHand  -0.0290023 5.41267 0.130555
RightShoulder  -0.598943 -5.19803 28.6155
RightArm  -10.3329 2.10811 32.7699
RightForeArm  34.1771 53.0521 12.195
RightHand  -0.85646 7.18912 -8.21489
LeftUpLeg  -20.3773 2.18227 2.49415
LeftLeg  13.8263 -5.97477 -1.3636
LeftFoot  -1.05201 0.443867 -4.85889
LeftToes  9.86798e-010 -1.28139e-010 1.4132e-011
769
root  -49.6667 40.4565 -2.52718 -170.046 -59.1912 171.701
RightUpLeg  -0.795253 -13.9117 -8.76837
RightLeg  10.9558 -20.3859 0.470714
RightFoot  -7.56407 -0.112267 1.84766
RightToes  -4.65661e-009 0 -3.6325e-017
Spine  10.4452 3.55331 19.187
Spine1  4.28972 7.66271 -12.2351
HEad  -13.3748 6.21772 -13.996
LeftShoulder1  -0.276752 4.20834 -33.1538
LeftArm  4.53137 13.8032 -40.7772
LeftForeArm  25.2726 -27.4438 -4.52237
LeftHand  -0.0281733 5.2951 0.426191
RightShoulder  -0.673009 -5.38223 29.1088
RightArm  -4.73345 -0.259665 36.1011
RightForeArm  27.4722 45.5644 9.50613
RightHand  -0.826485 7.60969 -7.72539
LeftUpLeg  -19.8232 3.06702 3.83654
LeftLeg  11.5695 -5.19484 -0.85869
LeftFoot  -0.405919 0.478779 -4.97228
LeftToes  9.86798e-010 -1.28139e-010 1.4132e-011
770
root  -50.0672 40.4609 -2.54722 -170.125 -60.5832 171.325
RightUpLeg  0.976544 -13.8348 -9.17135
RightLeg  10.0487 -21.6526 0.398701
RightFoot  -7.41434 -0.135162 2.47195
RightToes  -4.65661e-009 0 -3.6325e-017
Spine  9.30921 3.67521 18.2222
Spine1  5.06118 7.63505 -12.0688
HEad  -13.0941 6.73459 -13.3339
LeftShoulder1  -0.280103 4.2126 -33.3902
LeftArm  5.62796 14.0572 -40.3243
LeftForeArm  22.8594 -23.3995 -3.97613
LeftHand  -0.0425381 6.24495 -0.554447
RightShoulder  -0.768965 -5.60511 29.9526
RightArm  1.93812 -0.958399 39.3778
RightForeArm  18.835 35.5508 6.86962
RightHand  -0.77122 8.4272 -6.8352
LeftUpLeg  -18.5329 4.34952 4.75545
LeftLeg  8.76707 -3.29485 -0.199254
LeftFoot  0.399364 0.499212 -4.89289
LeftToes  9.86798e-010 -1.28139e-010 1.4132e-011
771
root  -50.5528 40.4551 -2.52265 -170.07 -61.9856 170.864
RightUpLeg  2.76229 -13.7289 -9.65432
RightLeg  9.15745 -22.9477 0.277942
RightFoot  -7.23925 -0.16709 3.28846
RightToes  -4.65661e-009 0 -3.6325e-017
Spine  8.27888 3.60428 17.3587
Spine1  5.50737 7.46878 -12.1738
HEad  -12.8599 7.52912 -12.6487
LeftShoulder1  -0.33349 4.34774 -33.3454
LeftArm  3.96425 14.7525 -40.1671
LeftForeArm  24.8138 -19.4107 -4.682
LeftHand  -0.0936811 8.02917 -2.20037
RightShoulder  -0.763458 -5.56959 30.2921
RightArm  10.412 -1.01375 43.1615
RightForeArm  10.3789 24.1782 4.93013
RightHand  -0.771816 8.80769 -6.66161
LeftUpLeg  -17.0729 6.05999 5.22498
LeftLeg  6.06981 0.471214 0.131794
LeftFoot  1.98696 0.496029 -4.3353
LeftToes  9.86798e-010 -1.28139e-010 1.4132e-011
772
root  -51.0922 40.4228 -2.44912 -170.055 -63.6973 170.667
RightUpLeg  4.41919 -13.6097 -10.006
RightLeg  8.38165 -24.5363 0.202829
RightFoot  -7.10071 -0.206146 4.26033
RightToes  -4.65661e-009 0 -3.6325e-017
Spine  7.41632 3.82256 16.4171
Spine1  5.29174 7.35942 -11.4779
HEad  -12.0037 7.34831 -12.1309
LeftShoulder1  -0.277158 4.1944 -34.0776
LeftArm  0.115365 15.0628 -39.2733
LeftForeArm  30.2691 -14.8243 -6.45852
LeftHand  -0.15258 8.31455 -3.70562
RightShoulder  -0.768452 -5.58375 30.2784
RightArm  14.2874 -2.1537 46.2867
RightForeArm  9.68123 14.1986 5.26306
RightHand  -0.612673 7.86151 -5.72506
LeftUpLeg  -15.8893 7.44542 5.55408
LeftLeg  4.45122 6.44442 0.00763368
LeftFoot  3.1696 0.527209 -4.29583
LeftToes  9.86798e-010 -1.28139e-010 1.4132e-011
773
root  -51.7638 40.3295 -2.2836 -170.508 -65.5571 170.846
RightUpLeg  6.23509 -13.845 -10.6298
RightLeg  8.14573 -25.6681 0.254804
RightFoot  -7.17049 -0.246456 5.43686
RightToes  -4.65661e-009 0 -3.6325e-017
Spine  7.5131 4.12303 16.062
Spine1  3.03994 7.27537 -10.9138
HEad  -10.0308 6.45418 -11.7103
LeftShoulder1  0.0110316 3.47564 -34.4712
LeftArm  -3.23587 17.0631 -38.4989
LeftForeArm  35.9045 -11.118 -7.4829
LeftHand  -0.25134 9.19118 -5.69912
RightShoulder  -0.633616 -5.2263 30.0548
RightArm  9.32791 -6.27097 48.2892
RightForeArm  13.852 6.42659 5.94318
RightHand  -0.62844 7.27242 -6.12987
LeftUpLeg  -14.8479 8.70244 5.54892
LeftLeg  4.46838 11.3824 -0.297584
LeftFoot  3.23696 0.368511 -3.02978
LeftToes  9.86798e-010 -1.28139e-010 1.4132e-011
